<svg id="Layer_1" data-name="Layer 1" xmlns="http://www.w3.org/2000/svg" xmlns:xlink="http://www.w3.org/1999/xlink" viewBox="0 0 32 32"><defs><style>.cls-1{fill:#115171;}.cls-2{fill:#f6921e;}.cls-3{fill:url(#linear-gradient);}.cls-4{fill:url(#linear-gradient-2);}.cls-5{fill:url(#linear-gradient-3);}.cls-6{fill:#fff;}</style><linearGradient id="linear-gradient" x1="16.03" y1="11.36" x2="16.03" y2="4.64" gradientUnits="userSpaceOnUse"><stop offset="0.01" stop-color="#f05a28"/><stop offset="0.06" stop-color="#f1652b"/><stop offset="0.19" stop-color="#f48033"/><stop offset="0.34" stop-color="#f79539"/><stop offset="0.51" stop-color="#f9a43d"/><stop offset="0.7" stop-color="#faac3f"/><stop offset="1" stop-color="#faaf40"/></linearGradient><linearGradient id="linear-gradient-2" x1="16.45" y1="9.16" x2="18.92" y2="9.16" xlink:href="#linear-gradient"/><linearGradient id="linear-gradient-3" x1="13.26" y1="9.59" x2="15.17" y2="9.59" xlink:href="#linear-gradient"/></defs><title>yt</title><path class="cls-1" d="M31.43,31.6H.57L13,11.46a4.72,4.72,0,0,0,6.38,0Z"/><polygon class="cls-2" points="20.18 10.15 19.66 11 23.04 12.29 20.18 10.15"/><polygon class="cls-2" points="19.76 8.37 23.37 7.98 19.77 7.36 19.76 8.37"/><polygon class="cls-2" points="18.96 5.31 21.07 2.77 18.3 4.62 18.96 5.31"/><polygon class="cls-2" points="16.56 3.86 16.13 0.4 15.53 3.91 16.56 3.86"/><polygon class="cls-2" points="13.64 4.62 10.68 2.5 12.95 5.31 13.64 4.62"/><polygon class="cls-2" points="12.02 7.37 8.34 7.84 11.99 8.36 12.02 7.37"/><polygon class="cls-2" points="12.22 10.15 12.66 11.02 9.17 12.36 12.22 10.15"/><path class="cls-3" d="M17.23,9.36A.89.89,0,0,0,17.46,9a2.73,2.73,0,0,0,.16-1c0-.11,0-.23,0-.34a6.67,6.67,0,0,0-.22-1.08,9.85,9.85,0,0,0-.78-1.87s0-.07-.08-.06-.06,0-.07.08,0,.06,0,.09a1.8,1.8,0,0,1-.1.33,4.33,4.33,0,0,1-.83,1.25c-.12.14-.25.26-.37.41a4.25,4.25,0,0,0-.5.88,2.58,2.58,0,0,0-.21,1.09c0,.13,0,.26,0,.39a1.42,1.42,0,0,0,.11.55,3.75,3.75,0,0,0,1.17,1.61s.08.06.14,0,0-.06,0-.11a1,1,0,0,1,.15-.47,3.57,3.57,0,0,1,.65-.89C16.88,9.7,17.06,9.53,17.23,9.36Z"/><path class="cls-4" d="M18.92,9.09a4.73,4.73,0,0,0-.16-.9,6.23,6.23,0,0,0-.49-1.13s-.05-.07-.1,0,0,.06,0,.1a3.14,3.14,0,0,1,.05.51,3,3,0,0,1-.16,1,2.28,2.28,0,0,1-.65,1.07,4.85,4.85,0,0,0-.49.52,2,2,0,0,0-.41.78.41.41,0,0,0,0,.27c.05.1.09.11.18,0a1.41,1.41,0,0,1,.29-.18,3.44,3.44,0,0,1,1.1-.24.3.3,0,0,0,.24-.11,2.06,2.06,0,0,0,.55-1A2.33,2.33,0,0,0,18.92,9.09Z"/><path class="cls-5" d="M15.13,11.2l-.08-.06a2.2,2.2,0,0,1-.41-.33,2.51,2.51,0,0,1-.52-.91,2.93,2.93,0,0,1-.06-1.38A3.16,3.16,0,0,1,14.19,8s0-.07,0-.09-.07,0-.11,0l0,0a4.91,4.91,0,0,0-.58.92,2.13,2.13,0,0,0-.19.74,1.36,1.36,0,0,0,.63,1.21,3.38,3.38,0,0,0,.74.36,2.5,2.5,0,0,0,.45.12c.05,0,.08,0,.09,0S15.16,11.21,15.13,11.2Z"/><path class="cls-6" d="M16.48,26.54c-1.79.86-8.77,2.86-7.64-1.45.53-2,2.9-3.64,4.59-4.52s8.76-2.93,7.64,1.45c-.53,2.07-2.88,3.56-4.59,4.52-.08.05.05.05.08,0,1.72-1,5.92-3.67,4.58-6.23s-6.05-.7-7.79.2-5.87,3.69-4.58,6.23,6.06.63,7.79-.2C16.65,26.53,16.52,26.52,16.48,26.54Z"/><path class="cls-6" d="M12.65,25a9.36,9.36,0,0,1,.65-3.5c.62-1.42,2-3.46,4.19-2.18,1.78,1,2.31,3.84,2.31,5.69,0,2.1-1.22,7.72-4.84,5.69-1.84-1-2.24-3.83-2.31-5.7,0-.07-.15-.05-.15,0,.08,2.12.84,6.2,3.72,6.2S19.94,27.15,20,25s-.89-6.18-3.71-6.19S12.58,22.92,12.5,25C12.5,25.11,12.65,25.09,12.65,25Z"/><path class="cls-6" d="M15.42,26.53c-1.66-1-4.05-2.66-4.45-4.77-.85-4.43,5.93-2.14,7.76-1.08,1.67,1,4.06,2.71,4.46,4.78.86,4.48-5.93,2.06-7.77,1.07,0,0-.17,0-.11.08,1.81,1,5.78,2.83,7.61.84,2.2-2.39-2.37-5.86-4.07-6.84s-5.8-2.8-7.61-.85c-2.24,2.41,2.42,5.83,4.07,6.85C15.36,26.64,15.49,26.57,15.42,26.53Z"/><rect class="cls-6" x="11.37" y="16.43" width="9.27" height="2.02"/><rect class="cls-6" x="6.78" y="20.73" width="18.37" height="1.95" transform="translate(37.67 5.75) rotate(90)"/></svg>